<svg width="281" height="36" viewBox="0 0 281 36" fill="none" xmlns="http://www.w3.org/2000/svg">
    <path d="M0.79248 0.832277V7.4143C0.79248 7.87733 1.16848 8.24658 1.62673 8.24658H15.6797C15.8971 8.24658 16.1086 8.3345 16.2672 8.48689L28.5695 20.5373C29.0982 21.0531 29.9912 20.6839 29.9912 19.9454V11.5698C29.9912 11.3471 29.9031 11.1302 29.7386 10.9779L18.7876 0.240308C18.629 0.0879188 18.4234 0 18.2001 0H1.62673C1.16848 0 0.79248 0.369249 0.79248 0.832277Z"
          fill="white"/>
    <path d="M0.79248 13.2695V34.1996C0.79248 34.6626 1.16848 35.0318 1.62673 35.0318H7.91299C8.37711 35.0318 8.74724 34.6567 8.74724 34.1996V21.5278C8.74724 21.0648 9.12323 20.6956 9.58148 20.6956H20.2975C21.0436 20.6956 21.4137 19.793 20.885 19.2713L14.1816 12.6776C14.023 12.5252 13.8174 12.4373 13.5941 12.4373H1.62673C1.16848 12.4373 0.79248 12.8124 0.79248 13.2695Z"
          fill="white"/>
    <path d="M61.6458 21.7623V0.832277C61.6458 0.369249 61.2698 0 60.8116 0H54.5253C54.0612 0 53.6911 0.37511 53.6911 0.832277V13.504C53.6911 13.967 53.3151 14.3363 52.8568 14.3363H42.1408C41.3947 14.3363 41.0246 15.2389 41.5533 15.7605L48.2567 22.3543C48.4153 22.5067 48.621 22.5946 48.8442 22.5946H60.8116C61.2698 22.5946 61.6458 22.2253 61.6458 21.7623Z"
          fill="white"/>
    <path d="M46.171 26.5509L33.8688 14.5004C33.34 13.9846 32.447 14.3539 32.447 15.0924V23.4679C32.447 23.6906 32.5351 23.9075 32.6996 24.0599L43.6506 34.7974C43.8093 34.9498 44.0149 35.0378 44.2381 35.0378H60.8115C61.2756 35.0378 61.6458 34.6626 61.6458 34.2055V27.6235C61.6458 27.1604 61.2698 26.7912 60.8115 26.7912H46.7585C46.5353 26.7912 46.3296 26.7033 46.171 26.5509Z"
          fill="white"/>
    <path d="M255.491 30.4074C254.134 30.4074 252.959 30.1085 251.954 29.5048C250.956 28.9011 250.192 28.0688 249.663 26.9904C249.134 25.9178 248.87 24.6635 248.87 23.2217V12.5017H253.1V22.87C253.1 23.6027 253.247 24.2357 253.535 24.7866C253.823 25.3317 254.246 25.7654 254.792 26.0761C255.338 26.3867 255.961 26.5449 256.649 26.5449C257.336 26.5449 257.947 26.3926 258.487 26.0761C259.028 25.7654 259.445 25.3317 259.745 24.769C260.044 24.2122 260.197 23.544 260.197 22.7704V12.4958H264.427V30.0147H260.426V26.5684L260.779 27.1779C260.367 28.2505 259.698 29.0594 258.764 29.5927C257.829 30.1437 256.737 30.4074 255.491 30.4074Z"
          fill="white"/>
    <path d="M273.528 30.4075C271.654 30.4075 270.026 29.9621 268.64 29.0712C267.253 28.1803 266.301 26.9729 265.784 25.449L268.945 23.9369C269.398 24.9274 270.026 25.6952 270.831 26.2579C271.636 26.8147 272.535 27.096 273.528 27.096C274.303 27.096 274.914 26.926 275.367 26.5802C275.819 26.2344 276.042 25.7831 276.042 25.2263C276.042 24.8805 275.948 24.5992 275.766 24.3706C275.584 24.1479 275.337 23.9544 275.026 23.7903C274.714 23.6321 274.374 23.4973 274.009 23.3859L271.137 22.5829C269.65 22.1551 268.528 21.4986 267.764 20.6195C267.001 19.7403 266.619 18.697 266.619 17.4955C266.619 16.4229 266.895 15.4851 267.441 14.6763C267.988 13.8733 268.751 13.2403 269.732 12.7949C270.714 12.3436 271.836 12.1208 273.105 12.1208C274.761 12.1208 276.224 12.5194 277.493 13.3107C278.762 14.1078 279.667 15.2214 280.208 16.6574L276.982 18.1695C276.683 17.3724 276.177 16.7394 275.466 16.2705C274.756 15.8016 273.962 15.5613 273.075 15.5613C272.364 15.5613 271.806 15.7196 271.395 16.0419C270.984 16.3643 270.784 16.7804 270.784 17.2962C270.784 17.6186 270.872 17.8999 271.043 18.1344C271.213 18.3688 271.46 18.5622 271.771 18.7146C272.082 18.867 272.441 19.0018 272.852 19.1307L275.66 19.9689C277.1 20.3967 278.216 21.0415 279.003 21.903C279.79 22.7646 280.184 23.8138 280.184 25.0563C280.184 26.1055 279.902 27.0374 279.344 27.8404C278.786 28.6433 278.01 29.2705 277.017 29.7218C276.019 30.1848 274.861 30.4075 273.528 30.4075Z"
          fill="white"/>
    <path d="M71.2925 30.0264V6.03687H86.1386V8.45164H73.8775V16.792H85.1751V19.2068H73.8775V30.0264H71.2925Z"
          fill="white"/>
    <path d="M95.9734 30.4074C94.3401 30.4074 92.8537 30.0147 91.5201 29.2352C90.1865 28.4498 89.1231 27.3772 88.3417 26.0175C87.5545 24.6518 87.1667 23.1045 87.1667 21.3637C87.1667 19.6464 87.5545 18.1108 88.33 16.7569C89.1055 15.403 90.1512 14.3363 91.479 13.5509C92.8009 12.7655 94.3049 12.3728 95.9792 12.3728C97.6595 12.3728 99.1576 12.7596 100.479 13.5333C101.801 14.307 102.847 15.3678 103.611 16.7217C104.375 18.0757 104.756 19.6171 104.756 21.3579C104.756 23.1162 104.357 24.6811 103.564 26.0409C102.765 27.4065 101.707 28.4733 100.385 29.2469C99.0577 30.0265 97.589 30.4074 95.9734 30.4074ZM95.9734 27.9927C97.1366 27.9927 98.1824 27.7055 99.1224 27.1252C100.057 26.545 100.803 25.7537 101.349 24.7397C101.895 23.7258 102.172 22.6063 102.172 21.3579C102.172 20.1095 101.895 18.9959 101.349 18.0112C100.803 17.0265 100.057 16.2411 99.1224 15.6609C98.1883 15.0806 97.1366 14.7934 95.9734 14.7934C94.8101 14.7934 93.7644 15.0806 92.8244 15.6609C91.8903 16.2411 91.1382 17.0265 90.5801 18.0112C90.022 19.0017 89.74 20.1153 89.74 21.3579C89.74 22.6004 90.022 23.7316 90.5801 24.7397C91.1382 25.7479 91.8903 26.545 92.8244 27.1252C93.7644 27.7055 94.816 27.9927 95.9734 27.9927Z"
          fill="white"/>
    <path d="M113.546 30.4076C112.341 30.4076 111.243 30.1204 110.256 29.5519C109.269 28.9833 108.487 28.1862 107.917 27.1664C107.347 26.1465 107.06 24.9743 107.06 23.638V12.7539H109.48V23.3508C109.48 24.2769 109.668 25.0857 110.044 25.7832C110.42 26.4806 110.949 27.0257 111.624 27.4067C112.3 27.7935 113.081 27.9869 113.963 27.9869C114.844 27.9869 115.631 27.7877 116.319 27.3891C117.006 26.9905 117.546 26.422 117.934 25.6835C118.322 24.945 118.516 24.06 118.516 23.0284V12.7539H120.936V30.0149H118.516V26.6682L119.062 26.7971C118.651 27.9166 117.952 28.7958 116.965 29.4346C115.972 30.0911 114.832 30.4076 113.546 30.4076Z"
          fill="white"/>
    <path d="M124.373 30.0265V12.7655H126.794V16.1122L126.247 15.9833C126.676 14.8696 127.381 13.9846 128.362 13.3458C129.343 12.7069 130.477 12.3787 131.77 12.3787C132.998 12.3787 134.096 12.66 135.077 13.2168C136.058 13.7736 136.828 14.5414 137.404 15.5202C137.974 16.499 138.262 17.5951 138.262 18.82V30.0265H135.841V19.7519C135.841 18.7028 135.653 17.8119 135.277 17.0793C134.901 16.3466 134.372 15.784 133.697 15.3913C133.021 14.9927 132.24 14.7934 131.358 14.7934C130.477 14.7934 129.69 14.9927 129.003 15.3913C128.315 15.7898 127.775 16.3584 127.387 17.0969C126.999 17.8354 126.805 18.7204 126.805 19.7519V30.0265H124.373Z"
          fill="white"/>
    <path d="M149.154 30.4075C147.538 30.4075 146.087 30.0148 144.795 29.2353C143.502 28.4499 142.486 27.3773 141.745 26.0175C141.005 24.6519 140.629 23.1163 140.629 21.3989C140.629 19.6582 140.999 18.1167 141.745 16.7628C142.492 15.4089 143.496 14.3422 144.777 13.5568C146.058 12.7714 147.515 12.3787 149.148 12.3787C150.634 12.3787 151.956 12.7011 153.119 13.3458C154.283 13.9905 155.193 14.858 155.863 15.954L155.475 16.628V5.65015H157.896V30.0265H155.475V26.164L155.863 26.5157C155.258 27.7583 154.365 28.7195 153.166 29.3994C151.98 30.0734 150.64 30.4075 149.154 30.4075ZM149.283 27.9927C150.446 27.9927 151.492 27.7055 152.432 27.1253C153.366 26.545 154.112 25.7596 154.659 24.7574C155.205 23.761 155.481 22.6356 155.481 21.3931C155.481 20.1505 155.205 19.0252 154.659 18.0288C154.112 17.0324 153.366 16.2412 152.432 15.6609C151.498 15.0807 150.446 14.7935 149.283 14.7935C148.143 14.7935 147.109 15.0807 146.187 15.6609C145.259 16.2412 144.536 17.0266 144.007 18.0112C143.479 19.0018 143.214 20.1271 143.214 21.3931C143.214 22.6356 143.479 23.761 144.007 24.7574C144.536 25.7538 145.253 26.545 146.169 27.1253C147.086 27.7055 148.12 27.9927 149.283 27.9927Z"
          fill="white"/>
    <path d="M169.146 30.4074C167.531 30.4074 166.074 30.0147 164.775 29.2352C163.471 28.4498 162.443 27.3714 161.691 25.9999C160.939 24.6284 160.563 23.0693 160.563 21.3286C160.563 19.5878 160.927 18.0522 161.662 16.71C162.39 15.3678 163.389 14.3128 164.646 13.5392C165.903 12.7655 167.319 12.3787 168.888 12.3787C170.133 12.3787 171.25 12.6073 172.231 13.0703C173.212 13.5333 174.04 14.1546 174.733 14.94C175.421 15.7254 175.95 16.6045 176.314 17.5775C176.678 18.5563 176.86 19.5585 176.86 20.5901C176.86 20.8069 176.848 21.0472 176.825 21.3169C176.801 21.5865 176.772 21.8561 176.731 22.1374H162.108V19.8809H175.344L174.181 20.848C174.375 19.6699 174.24 18.609 173.776 17.6771C173.312 16.7452 172.654 16.0008 171.79 15.4557C170.932 14.9107 169.963 14.6352 168.888 14.6352C167.813 14.6352 166.814 14.9165 165.903 15.4733C164.987 16.0301 164.276 16.8097 163.759 17.8061C163.242 18.8024 163.036 19.9922 163.148 21.3637C163.042 22.7352 163.26 23.9368 163.812 24.9566C164.364 25.9764 165.116 26.7677 166.074 27.3245C167.031 27.8813 168.059 28.1626 169.158 28.1626C170.427 28.1626 171.49 27.8637 172.354 27.26C173.212 26.6563 173.917 25.9061 174.451 25.0035L176.519 26.0995C176.173 26.8732 175.65 27.5882 174.939 28.2388C174.228 28.8953 173.382 29.4169 172.407 29.8155C171.414 30.214 170.333 30.4074 169.146 30.4074Z"
          fill="white"/>
    <path d="M179.51 30.0264V12.7654H181.931V15.5964L181.607 15.1802C182.019 14.3655 182.636 13.7208 183.464 13.2461C184.292 12.7772 185.297 12.5369 186.484 12.5369H187.582V14.9516H186.067C184.821 14.9516 183.816 15.3385 183.064 16.1121C182.312 16.8858 181.936 17.9818 181.936 19.3944V30.0206H179.51V30.0264Z"
          fill="white"/>
    <path d="M193.68 30.0264V6.03687H195.942L210.048 26.2284H209.179V6.03687H211.758V30.0264H209.496L195.39 9.70592H196.26V30.0264H193.68Z"
          fill="white"/>
    <path d="M223.49 30.4074C221.874 30.4074 220.417 30.0147 219.119 29.2352C217.815 28.4498 216.787 27.3714 216.035 25.9999C215.283 24.6284 214.907 23.0693 214.907 21.3286C214.907 19.5878 215.271 18.0522 216.005 16.71C216.734 15.3678 217.733 14.3128 218.99 13.5392C220.247 12.7655 221.663 12.3787 223.232 12.3787C224.477 12.3787 225.593 12.6073 226.574 13.0703C227.556 13.5333 228.384 14.1546 229.077 14.94C229.765 15.7254 230.293 16.6045 230.658 17.5775C231.022 18.5563 231.204 19.5585 231.204 20.5901C231.204 20.8069 231.192 21.0472 231.169 21.3169C231.145 21.5865 231.116 21.8561 231.075 22.1374H216.452V19.8809H229.688L228.525 20.848C228.719 19.6699 228.584 18.609 228.12 17.6771C227.656 16.7452 226.997 16.0008 226.134 15.4557C225.276 14.9107 224.307 14.6352 223.232 14.6352C222.156 14.6352 221.158 14.9165 220.247 15.4733C219.331 16.0301 218.62 16.8097 218.103 17.8061C217.586 18.8024 217.38 19.9922 217.492 21.3637C217.386 22.7352 217.603 23.9368 218.156 24.9566C218.708 25.9764 219.46 26.7677 220.417 27.3245C221.375 27.8813 222.403 28.1626 223.502 28.1626C224.771 28.1626 225.834 27.8637 226.698 27.26C227.556 26.6563 228.261 25.9061 228.795 25.0035L230.863 26.0995C230.517 26.8732 229.994 27.5882 229.283 28.2388C228.572 28.8953 227.726 29.4169 226.751 29.8155C225.752 30.214 224.671 30.4074 223.49 30.4074Z"
          fill="white"/>
    <path d="M245.404 16.6572L248.318 12.5076H243.377L240.563 16.6572H245.404Z" fill="white"/>
    <path d="M235.986 12.5076H231.016L237.185 21.2348L231.051 30.0264H236.022L239.682 24.5815L243.348 30.0264H248.283L235.986 12.5076Z"
          fill="white"/>
</svg>
